<?xml version="1.0" encoding="UTF-8" standalone="no"?>
<svg
   xmlns:svg="http://www.w3.org/2000/svg"
   xmlns="http://www.w3.org/2000/svg"
   xmlns:sodipodi="http://sodipodi.sourceforge.net/DTD/sodipodi-0.dtd"
   xmlns:inkscape="http://www.inkscape.org/namespaces/inkscape"
   inkscape:version="1.1-dev (48d18c81, 2020-07-08)"
   sodipodi:docname="cmkoreansymbol.svg"
   id="svg921"
   viewBox="0 0 127.64 121.43"
   version="1.1"
   height="121.43mm"
   width="127.64mm">
  <defs
     id="defs925" />
  <sodipodi:namedview
     inkscape:current-layer="svg921"
     inkscape:window-maximized="0"
     inkscape:window-y="158"
     inkscape:window-x="521"
     inkscape:cy="242.14118"
     inkscape:cx="199.18678"
     inkscape:zoom="1.3153483"
     showgrid="false"
     id="namedview923"
     inkscape:window-height="843"
     inkscape:window-width="1350"
     inkscape:pageshadow="2"
     inkscape:pageopacity="0"
     guidetolerance="10"
     gridtolerance="10"
     objecttolerance="10"
     borderopacity="1"
     bordercolor="#666666"
     pagecolor="#ffffff" />
  <g
     id="g1400">
    <g
       transform="translate(-41.1789,-87.5771)"
       stroke="#161718"
       id="g829">
      <path
         d="m 102.81,208.96 c -4.2046,1.2658 -22.647,-26.569 -18.878,-25.301 0.7672,0.258 -30.568,-0.67692 -32.077,-6.4618 -1.4598,-5.598 10.518,-33.266 12.309,-29.123 1.5711,3.6342 -14.183,-27.284 -10.484,-31.22 3.1656,-3.3686 27.122,-6.4604 31.187,-3.8213 2.1297,1.3828 15.733,-28.143 21.593,-24.758 11.105,6.4154 21.749,27.197 18.878,25.301 -3.4352,-2.2678 27.271,0.31499 32.077,6.4618 4.827,6.1741 -12.35,30.456 -12.309,29.123 0.0536,-1.7171 14.65,23.871 10.484,31.22 -3.6953,6.5186 -34.513,6.6628 -31.187,3.8213 1.8166,-1.5521 -14.68,22.677 -21.593,24.758 z"
         fill="#ffffff"
         stroke-width="0.013531"
         style="mix-blend-mode:normal"
         id="path823" />
      <path
         d="m 102.89,206.8 c -4.0545,1.2206 -21.839,-25.62 -18.204,-24.398 0.73981,0.24879 -29.477,-0.65275 -30.932,-6.2312 -1.4077,-5.3982 10.142,-32.078 11.869,-28.083 1.515,3.5044 -13.677,-26.31 -10.11,-30.105 3.0526,-3.2483 26.154,-6.2297 30.073,-3.6849 2.0536,1.3335 15.171,-27.139 20.822,-23.874 10.708,6.1864 20.973,26.226 18.204,24.398 -3.3125,-2.1868 26.298,0.30375 30.932,6.2312 4.6547,5.9537 -11.91,29.369 -11.869,28.083 0.0517,-1.6558 14.127,23.019 10.11,30.105 -3.5634,6.2859 -33.281,6.425 -30.073,3.6849 1.7518,-1.4967 -14.156,21.867 -20.822,23.874 z"
         fill="#7840f5"
         stroke-width="0.013048"
         style="mix-blend-mode:normal"
         id="path825" />
      <path
         d="m 103.39,192.71 c -3.0976,0.92558 -16.685,-19.428 -13.908,-18.501 0.56521,0.18865 -22.52,-0.49497 -23.632,-4.725 -1.0755,-4.0933 7.7485,-24.324 9.0682,-21.295 1.1575,2.6573 -10.449,-19.95 -7.724,-22.828 2.3322,-2.4631 19.982,-4.7239 22.976,-2.7942 1.569,1.0111 11.591,-20.579 15.908,-18.103 8.181,4.691 16.023,19.887 13.908,18.501 -2.5308,-1.6582 20.091,0.23033 23.632,4.725 3.5561,4.5146 -9.0988,22.27 -9.0682,21.295 0.0395,-1.2556 10.793,17.455 7.724,22.828 -2.7224,4.7665 -25.426,4.872 -22.976,2.7942 1.3384,-1.1349 -10.815,16.581 -15.908,18.103 z"
         fill="#414180"
         stroke-width="0.0099315"
         style="mix-blend-mode:normal"
         id="path827" />
    </g>
    <g
       transform="translate(113.225,-57.39)"
       stroke="#161718"
       stroke-width="0.016863"
       id="g859">
      <g
         transform="matrix(0.97792,0.58296,-0.58644,0.97212,97.892,256.63)"
         fill="#ffffff"
         id="g843">
        <path
           d="m -167.31,-38.476 -13.666,-0.0631 -9.5372,-28.314 c -2.3526,-7.7087 11.786,-26.456 15.046,-30.702 2.4257,3.6736 17.716,17.381 17.048,30.586 z"
           id="path831" />
        <path
           d="m -167.81,-38.175 -13.666,0.0631 -9.5372,28.314 c -2.3526,7.7087 11.786,26.456 15.046,30.702 2.4257,-3.6736 17.716,-17.381 17.048,-30.586 z"
           id="path833" />
        <path
           d="m -171.8,-44.353 -7.1386,11.653 19.056,23.011 c 5.3166,6.0575 28.698,3.9022 34.024,3.3649 -1.847,-3.996 -5.4547,-24.212 -17.035,-30.594 z"
           id="path835" />
        <path
           d="m -180.05,-44.856 6.0156,12.271 29.639,-3.763 c 7.9631,-1.2441 18.669,-22.142 21.069,-26.927 -4.3637,-0.5811 -23.366,-8.3648 -34.959,-2.0055 z"
           id="path837" />
        <path
           d="m -174.6,-45.837 7.1386,11.653 -19.056,23.011 c -5.3166,6.0575 -28.698,3.9022 -34.024,3.3649 1.847,-3.996 5.4547,-24.212 17.035,-30.594 z"
           id="path839" />
        <path
           d="m -167.16,-46.742 -5.5222,12.5 -29.765,-2.58 c -8.0064,-0.9261 -19.536,-21.381 -22.124,-26.067 4.3371,-0.75439 23.015,-9.2885 34.852,-3.3958 z"
           id="path841" />
      </g>
      <g
         transform="matrix(0.94758,0.56825,-0.56825,0.94758,93.324,253.14)"
         fill="#b9f2f3"
         id="g857">
        <path
           d="m -167.31,-38.476 -13.666,-0.0631 -9.5372,-28.314 c -2.3526,-7.7087 11.786,-26.456 15.046,-30.702 2.4257,3.6736 17.716,17.381 17.048,30.586 z"
           id="path845" />
        <path
           d="m -167.81,-38.175 -13.666,0.0631 -9.5372,28.314 c -2.3526,7.7087 11.786,26.456 15.046,30.702 2.4257,-3.6736 17.716,-17.381 17.048,-30.586 z"
           id="path847" />
        <path
           d="m -171.8,-44.353 -7.1386,11.653 19.056,23.011 c 5.3166,6.0575 28.698,3.9022 34.024,3.3649 -1.847,-3.996 -5.4547,-24.212 -17.035,-30.594 z"
           id="path849" />
        <path
           d="m -180.05,-44.856 6.0156,12.271 29.639,-3.763 c 7.9631,-1.2441 18.669,-22.142 21.069,-26.927 -4.3637,-0.5811 -23.366,-8.3648 -34.959,-2.0055 z"
           id="path851" />
        <path
           d="m -174.6,-45.837 7.1386,11.653 -19.056,23.011 c -5.3166,6.0575 -28.698,3.9022 -34.024,3.3649 1.847,-3.996 5.4547,-24.212 17.035,-30.594 z"
           id="path853" />
        <path
           d="m -167.16,-46.742 -5.5222,12.5 -29.765,-2.58 c -8.0064,-0.9261 -19.536,-21.381 -22.124,-26.067 4.3371,-0.75439 23.015,-9.2885 34.852,-3.3958 z"
           id="path855" />
      </g>
    </g>
    <g
       id="g1350">
      <path
         id="path861"
         stroke-width="0.010937"
         stroke="#161718"
         fill="#8cdcff"
         d="M 45.81,89.349 C 45.7814,99.512 68.316,69.364 64.782,61.687 61.1464,53.7885 38.366,53.347 31.59,58.4566 c -7.5233,5.6732 27.684,10.538 32.229,3.4761 4.6761,-7.2657 -5.8222,-29.911 -13.94,-31.894 -7.4668,-1.8238 5.1783,30.523 13.257,31.138 8.3117,0.63281 21.545,-20.224 19.252,-28.663 -2.2241,-8.1859 -22.506,19.985 -18.972,27.662 3.6356,7.8985 26.859,8.9356 33.192,3.2304 4.8673,-4.3848 -27.684,-10.538 -32.229,-3.4761 -4.6761,7.2657 8.857,33.294 13.94,31.894 C 83.0842,90.5116 73.1407,61.301 65.062,60.686 56.7503,60.05319 45.835,80.571 45.81,89.349 Z" />
      <g
         transform="translate(-36.725,-92.031)"
         id="g887"
         stroke="#161718"
         fill="#ffffff">
        <ellipse
           id="ellipse863"
           stroke-width="0.016637"
           ry="3.6707001"
           rx="3.7242999"
           cy="133.42"
           cx="107.68"
           transform="matrix(0.9966,0.082447,-0.08489,0.99639,0,0)" />
        <ellipse
           id="ellipse865"
           stroke-width="0.016638"
           ry="3.6873"
           rx="3.7079"
           cy="175.28999"
           cx="-13.351"
           transform="matrix(0.83404,-0.5517,0.563,0.82646,0,0)" />
        <ellipse
           id="ellipse867"
           stroke-width="0.016638"
           ry="3.7228999"
           rx="3.6721001"
           cy="61.783001"
           cx="-177.10001"
           transform="matrix(-0.1849,-0.98276,0.98372,-0.17971,0,0)" />
        <ellipse
           id="ellipse869"
           stroke-width="0.016638"
           ry="3.7079"
           rx="3.6872001"
           cy="-9.2896996"
           cx="179.55"
           transform="matrix(0.56186,0.82724,-0.8348,0.55056,0,0)" />
        <ellipse
           id="ellipse871"
           stroke-width="0.016638"
           ry="3.7103"
           rx="3.6847999"
           cy="-177.34"
           cx="75.226997"
           transform="matrix(-0.52108,0.8535,-0.8602,-0.50995,0,0)" />
        <g
           id="g885">
          <ellipse
             id="ellipse873"
             stroke-width="0.036504"
             ry="8.0537996"
             rx="8.1715002"
             cy="130.5"
             cx="105.45"
             transform="matrix(0.9966,0.082447,-0.08489,0.99639,0,0)" />
          <ellipse
             id="ellipse875"
             stroke-width="0.036506"
             ry="8.0902004"
             rx="8.1353998"
             cy="172.35001"
             cx="-15.57"
             transform="matrix(0.83404,-0.5517,0.563,0.82646,0,0)" />
          <ellipse
             id="ellipse877"
             stroke-width="0.036504"
             ry="8.1682997"
             rx="8.0570002"
             cy="58.813"
             cx="-179.3"
             transform="matrix(-0.1849,-0.98276,0.98372,-0.17971,0,0)" />
          <ellipse
             id="ellipse879"
             stroke-width="0.036506"
             ry="8.1356001"
             rx="8.0901003"
             cy="-12.248"
             cx="177.34"
             transform="matrix(0.56186,0.82724,-0.8348,0.55056,0,0)" />
          <ellipse
             id="ellipse881"
             stroke-width="0.036506"
             ry="8.1407003"
             rx="8.0848999"
             cy="-180.3"
             cx="73.022003"
             transform="matrix(-0.52108,0.8535,-0.8602,-0.50995,0,0)" />
          <ellipse
             id="ellipse883"
             stroke-width="0.036504"
             ry="8.0531998"
             rx="8.1721001"
             cy="-162.35001"
             cx="-114.14"
             transform="matrix(-0.99914,-0.041439,0.042674,-0.99909,0,0)" />
        </g>
      </g>
      <g
         style="fill:#ef6bff;fill-opacity:1"
         transform="translate(-36.725,-92.031)"
         id="g901"
         stroke-width="0.015416"
         stroke="#161718"
         fill="#ff5555">
        <circle
           style="fill:#ef6bff;fill-opacity:1"
           id="circle889"
           r="3.4261"
           cy="175.81"
           cx="-11.317"
           transform="rotate(-33.873)" />
        <circle
           style="fill:#ef6bff;fill-opacity:1"
           id="circle891"
           r="3.4261"
           cy="134"
           cx="107.94"
           transform="rotate(4.7989)" />
        <circle
           style="fill:#ef6bff;fill-opacity:1"
           id="circle893"
           r="3.4261"
           cy="62.928001"
           cx="-176.71001"
           transform="rotate(-100.5)" />
        <circle
           style="fill:#ef6bff;fill-opacity:1"
           id="circle895"
           r="3.4261"
           cy="-9.6211004"
           cx="179.77"
           transform="rotate(56.206)" />
        <circle
           style="fill:#ef6bff;fill-opacity:1"
           id="circle897"
           r="3.4261"
           cy="-175.91"
           cx="74.510002"
           transform="rotate(121.03)" />
        <circle
           style="fill:#ef6bff;fill-opacity:1"
           id="circle899"
           r="3.4261"
           cy="-158.32001"
           cx="-112.4"
           transform="rotate(-177.59)" />
      </g>
      <g
         transform="translate(0.00973312,-5.8731062)"
         id="g1026">
        <circle
           style="stroke:#161718"
           id="circle903"
           stroke-width="0.031533"
           r="8.6004"
           cy="41.536301"
           cx="82.409836"
           transform="rotate(19.506)" />
        <circle
           style="stroke:#161718"
           id="circle905"
           stroke-width="0.0305058"
           fill="#ffdd55"
           cy="41.536301"
           cx="82.409828"
           transform="rotate(19.506)"
           r="8.3202801" />
      </g>
    </g>
    <g
       transform="matrix(0.66413,0,0,0.66221,-7.173,-36.692)"
       stroke-width="0.026458"
       id="g915">
      <rect
         x="28.294001"
         y="71.793999"
         width="153.41"
         height="153.41"
         opacity="0"
         id="rect909" />
      <rect
         x="17.815001"
         y="55.425999"
         width="181.12"
         height="183.10001"
         opacity="0"
         id="rect911" />
      <rect
         x="11.382"
         y="58.889999"
         width="191.52"
         height="173.21001"
         opacity="0"
         id="rect913" />
    </g>
  </g>
</svg>
