<?xml version="1.0" encoding="UTF-8"?>
<svg width="127.64mm" height="121.43mm" version="1.1" viewBox="0 0 127.64 121.43" xmlns="http://www.w3.org/2000/svg">
 <g transform="translate(-111.56 22.159)">
  <g transform="translate(74.835 -114.19)">
   <g transform="translate(-4.4539 4.4539)" stroke="#161718">
    <path d="m102.81 208.96c-4.2046 1.2658-22.647-26.569-18.878-25.301 0.7672 0.258-30.568-0.67692-32.077-6.4618-1.4598-5.598 10.518-33.266 12.309-29.123 1.5711 3.6342-14.183-27.284-10.484-31.22 3.1656-3.3686 27.122-6.4604 31.187-3.8213 2.1297 1.3828 15.733-28.143 21.593-24.758 11.105 6.4154 21.749 27.197 18.878 25.301-3.4352-2.2678 27.271 0.31499 32.077 6.4618 4.827 6.1741-12.35 30.456-12.309 29.123 0.0536-1.7171 14.65 23.871 10.484 31.22-3.6953 6.5186-34.513 6.6628-31.187 3.8213 1.8166-1.5521-14.68 22.677-21.593 24.758z" fill="#fff" stroke-width=".013531" style="mix-blend-mode:normal"/>
    <path d="m102.89 206.8c-4.0545 1.2206-21.839-25.62-18.204-24.398 0.73981 0.24879-29.477-0.65275-30.932-6.2312-1.4077-5.3982 10.142-32.078 11.869-28.083 1.515 3.5044-13.677-26.31-10.11-30.105 3.0526-3.2483 26.154-6.2297 30.073-3.6849 2.0536 1.3335 15.171-27.139 20.822-23.874 10.708 6.1864 20.973 26.226 18.204 24.398-3.3125-2.1868 26.298 0.30375 30.932 6.2312 4.6547 5.9537-11.91 29.369-11.869 28.083 0.0517-1.6558 14.127 23.019 10.11 30.105-3.5634 6.2859-33.281 6.425-30.073 3.6849 1.7518-1.4967-14.156 21.867-20.822 23.874z" fill="#7840f5" stroke-width=".013048" style="mix-blend-mode:normal"/>
    <path d="m103.39 192.71c-3.0976 0.92558-16.685-19.428-13.908-18.501 0.56521 0.18865-22.52-0.49497-23.632-4.725-1.0755-4.0933 7.7485-24.324 9.0682-21.295 1.1575 2.6573-10.449-19.95-7.724-22.828 2.3322-2.4631 19.982-4.7239 22.976-2.7942 1.569 1.0111 11.591-20.579 15.908-18.103 8.181 4.691 16.023 19.887 13.908 18.501-2.5308-1.6582 20.091 0.23033 23.632 4.725 3.5561 4.5146-9.0988 22.27-9.0682 21.295 0.0395-1.2556 10.793 17.455 7.724 22.828-2.7224 4.7665-25.426 4.872-22.976 2.7942 1.3384-1.1349-10.815 16.581-15.908 18.103z" fill="#414180" stroke-width=".0099315" style="mix-blend-mode:normal"/>
   </g>
   <g transform="translate(149.95 34.641)" stroke="#161718" stroke-width=".016863">
    <g transform="matrix(.97792 .58296 -.58644 .97212 97.892 256.63)" fill="#fff">
     <path d="m-167.31-38.476-13.666-0.0631-9.5372-28.314c-2.3526-7.7087 11.786-26.456 15.046-30.702 2.4257 3.6736 17.716 17.381 17.048 30.586z"/>
     <path d="m-167.81-38.175-13.666 0.0631-9.5372 28.314c-2.3526 7.7087 11.786 26.456 15.046 30.702 2.4257-3.6736 17.716-17.381 17.048-30.586z"/>
     <path d="m-171.8-44.353-7.1386 11.653 19.056 23.011c5.3166 6.0575 28.698 3.9022 34.024 3.3649-1.847-3.996-5.4547-24.212-17.035-30.594z"/>
     <path d="m-180.05-44.856 6.0156 12.271 29.639-3.763c7.9631-1.2441 18.669-22.142 21.069-26.927-4.3637-0.5811-23.366-8.3648-34.959-2.0055z"/>
     <path d="m-174.6-45.837 7.1386 11.653-19.056 23.011c-5.3166 6.0575-28.698 3.9022-34.024 3.3649 1.847-3.996 5.4547-24.212 17.035-30.594z"/>
     <path d="m-167.16-46.742-5.5222 12.5-29.765-2.58c-8.0064-0.9261-19.536-21.381-22.124-26.067 4.3371-0.75439 23.015-9.2885 34.852-3.3958z"/>
    </g>
    <g transform="matrix(.94758 .56825 -.56825 .94758 93.324 253.14)" fill="#b9f2f3">
     <path d="m-167.31-38.476-13.666-0.0631-9.5372-28.314c-2.3526-7.7087 11.786-26.456 15.046-30.702 2.4257 3.6736 17.716 17.381 17.048 30.586z"/>
     <path d="m-167.81-38.175-13.666 0.0631-9.5372 28.314c-2.3526 7.7087 11.786 26.456 15.046 30.702 2.4257-3.6736 17.716-17.381 17.048-30.586z"/>
     <path d="m-171.8-44.353-7.1386 11.653 19.056 23.011c5.3166 6.0575 28.698 3.9022 34.024 3.3649-1.847-3.996-5.4547-24.212-17.035-30.594z"/>
     <path d="m-180.05-44.856 6.0156 12.271 29.639-3.763c7.9631-1.2441 18.669-22.142 21.069-26.927-4.3637-0.5811-23.366-8.3648-34.959-2.0055z"/>
     <path d="m-174.6-45.837 7.1386 11.653-19.056 23.011c-5.3166 6.0575-28.698 3.9022-34.024 3.3649 1.847-3.996 5.4547-24.212 17.035-30.594z"/>
     <path d="m-167.16-46.742-5.5222 12.5-29.765-2.58c-8.0064-0.9261-19.536-21.381-22.124-26.067 4.3371-0.75439 23.015-9.2885 34.852-3.3958z"/>
    </g>
   </g>
   <path d="m82.535 181.38c-0.0286 10.163 22.506-19.985 18.972-27.662-3.6356-7.8985-26.416-8.34-33.192-3.2304-7.5233 5.6732 27.684 10.538 32.229 3.4761 4.6761-7.2657-5.8222-29.911-13.94-31.894-7.4668-1.8238 5.1783 30.523 13.257 31.138 8.3117 0.63281 21.545-20.224 19.252-28.663-2.2241-8.1859-22.506 19.985-18.972 27.662 3.6356 7.8985 26.859 8.9356 33.192 3.2304 4.8673-4.3848-27.684-10.538-32.229-3.4761-4.6761 7.2657 8.857 33.294 13.94 31.894 4.7652-1.3124-5.1783-30.523-13.257-31.138-8.3117-0.63281-19.227 19.885-19.252 28.663z" fill="#8cdcff" stroke="#161718" stroke-width=".010937"/>
   <g fill="#fff" stroke="#161718">
    <ellipse transform="matrix(.9966 .082447 -.08489 .99639 0 0)" cx="107.68" cy="133.42" rx="3.7243" ry="3.6707" stroke-width=".016637"/>
    <ellipse transform="matrix(.83404 -.5517 .563 .82646 0 0)" cx="-13.351" cy="175.29" rx="3.7079" ry="3.6873" stroke-width=".016638"/>
    <ellipse transform="matrix(-.1849 -.98276 .98372 -.17971 0 0)" cx="-177.1" cy="61.783" rx="3.6721" ry="3.7229" stroke-width=".016638"/>
    <ellipse transform="matrix(.56186 .82724 -.8348 .55056 0 0)" cx="179.55" cy="-9.2897" rx="3.6872" ry="3.7079" stroke-width=".016638"/>
    <ellipse transform="matrix(-.52108 .8535 -.8602 -.50995 0 0)" cx="75.227" cy="-177.34" rx="3.6848" ry="3.7103" stroke-width=".016638"/>
    <g>
     <ellipse transform="matrix(.9966 .082447 -.08489 .99639 0 0)" cx="105.45" cy="130.5" rx="8.1715" ry="8.0538" stroke-width=".036504"/>
     <ellipse transform="matrix(.83404 -.5517 .563 .82646 0 0)" cx="-15.57" cy="172.35" rx="8.1354" ry="8.0902" stroke-width=".036506"/>
     <ellipse transform="matrix(-.1849 -.98276 .98372 -.17971 0 0)" cx="-179.3" cy="58.813" rx="8.057" ry="8.1683" stroke-width=".036504"/>
     <ellipse transform="matrix(.56186 .82724 -.8348 .55056 0 0)" cx="177.34" cy="-12.248" rx="8.0901" ry="8.1356" stroke-width=".036506"/>
     <ellipse transform="matrix(-.52108 .8535 -.8602 -.50995 0 0)" cx="73.022" cy="-180.3" rx="8.0849" ry="8.1407" stroke-width=".036506"/>
     <ellipse transform="matrix(-.99914 -.041439 .042674 -.99909 0 0)" cx="-114.14" cy="-162.35" rx="8.1721" ry="8.0532" stroke-width=".036504"/>
    </g>
   </g>
   <g fill="#f55" stroke="#161718" stroke-width=".015416">
    <circle transform="rotate(-33.873)" cx="-11.317" cy="175.81" r="3.4261"/>
    <circle transform="rotate(4.7989)" cx="107.94" cy="134" r="3.4261"/>
    <circle transform="rotate(259.5)" cx="-176.71" cy="62.928" r="3.4261"/>
    <circle transform="rotate(56.206)" cx="179.77" cy="-9.6211" r="3.4261"/>
    <circle transform="rotate(121.03)" cx="74.51" cy="-175.91" r="3.4261"/>
    <circle transform="rotate(182.41)" cx="-112.4" cy="-158.32" r="3.4261"/>
   </g>
   <g transform="translate(-4.4539 4.4539)" stroke="#161718">
    <circle transform="rotate(19.506)" cx="148.56" cy="104.92" r="8.6004" stroke-width=".031533"/>
    <circle transform="rotate(19.506)" cx="148.56" cy="104.92" r="7.417" fill="#fd5" stroke-width=".027194"/>
   </g>
   <g transform="matrix(.66413 0 0 .66221 29.552 55.339)" stroke-width=".026458">
    <rect x="28.294" y="71.794" width="153.41" height="153.41" opacity="0"/>
    <rect x="17.815" y="55.426" width="181.12" height="183.1" opacity="0"/>
    <rect x="11.382" y="58.89" width="191.52" height="173.21" opacity="0"/>
   </g>
  </g>
 </g>
</svg>
